<svg width="627" height="130" viewBox="0 0 627 130" fill="none" xmlns="http://www.w3.org/2000/svg">
<path d="M69.0129 81.58V81.5519L25.3396 1.00057C24.4799 -0.584975 22.104 -0.205235 21.7813 1.56927L0.0313547 121.202C-0.181794 122.374 0.718864 123.453 1.91052 123.453H18.7384C19.6617 123.453 20.4528 122.793 20.6176 121.884L33.2838 52.0809L67.329 116.985C68.0443 118.349 69.9965 118.349 70.7118 116.985L104.757 52.0809L117.423 121.884C117.588 122.793 118.379 123.453 119.302 123.453H136.13C137.322 123.453 138.223 122.374 138.009 121.202L116.259 1.56927C115.937 -0.205235 113.561 -0.584975 112.701 1.00057L69.0129 81.58Z" fill="black"/>
<path d="M208.767 3.25452C174.124 3.25452 146.987 30.175 146.987 64.5485C146.987 98.922 174.124 125.857 208.767 125.857C243.321 125.857 270.391 98.9295 270.391 64.5485C270.391 30.1675 243.321 3.25452 208.767 3.25452ZM208.767 105.334C186.177 105.334 168.477 87.4167 168.477 64.5485C168.477 41.6802 186.177 23.7782 208.767 23.7782C231.269 23.7782 248.901 41.6878 248.901 64.5485C248.901 87.4092 231.269 105.334 208.767 105.334Z" fill="black"/>
<path d="M365.61 78.6085L293.169 0.637243C291.988 -0.634328 289.86 0.201594 289.86 1.93724V121.544C289.86 122.598 290.715 123.454 291.77 123.454H309.283C310.337 123.454 311.192 122.598 311.192 121.544V50.3547L383.473 128.473C384.653 129.749 386.785 128.914 386.785 127.176V7.56935C386.785 6.51453 385.93 5.65941 384.875 5.65941H367.52C366.465 5.65941 365.61 6.51453 365.61 7.56935V78.6085Z" fill="black"/>
<path d="M405.356 123.453H424.161C424.905 123.453 425.582 123.02 425.895 122.344L439.981 91.8358H485.028L498.797 122.329C499.106 123.013 499.787 123.453 500.538 123.453H520.942C522.35 123.453 523.274 121.98 522.661 120.712L464.869 1.11289C464.173 -0.325715 462.124 -0.325715 461.429 1.11289L403.636 120.712C403.024 121.98 403.948 123.453 405.356 123.453ZM448.812 72.9076L462.812 42.5264L476.549 72.9076H448.812Z" fill="black"/>
<path d="M568.308 5.65881H539.41C538.355 5.65881 537.5 6.51394 537.5 7.56876V121.543C537.5 122.598 538.355 123.453 539.41 123.453H568.308C604.134 123.453 626.396 100.884 626.396 64.5484C626.396 28.2125 604.135 5.65881 568.308 5.65881ZM568.308 103.244H558.99V25.7106H568.308C591.566 25.7106 604.906 39.8675 604.906 64.5484C604.906 89.1394 591.566 103.244 568.308 103.244Z" fill="black"/>
</svg>
